<mxfile host="65bd71144e">
    <diagram id="H87QG-jLVzyhNNJBcuFl" name="Page-1">
        <mxGraphModel dx="684" dy="264" grid="1" gridSize="10" guides="1" tooltips="1" connect="1" arrows="1" fold="1" page="1" pageScale="1" pageWidth="827" pageHeight="1169" math="0" shadow="0">
            <root>
                <mxCell id="0"/>
                <mxCell id="1" parent="0"/>
                <mxCell id="58" value="" style="group;aspect=fixed;" parent="1" vertex="1" connectable="0">
                    <mxGeometry y="600" width="120" height="40" as="geometry"/>
                </mxCell>
                <mxCell id="52" value="" style="ellipse;whiteSpace=wrap;html=1;aspect=fixed;rounded=1;fontFamily=Helvetica;fontSize=18;fontColor=default;fillColor=none;" parent="58" vertex="1">
                    <mxGeometry width="40" height="40" as="geometry"/>
                </mxCell>
                <mxCell id="53" value="" style="endArrow=none;html=1;rounded=0;labelBackgroundColor=default;strokeColor=default;fontFamily=Helvetica;fontSize=18;fontColor=default;shape=connector;exitX=1;exitY=1;exitDx=0;exitDy=0;" parent="58" source="52" edge="1">
                    <mxGeometry width="50" height="50" relative="1" as="geometry">
                        <mxPoint x="50" y="25" as="sourcePoint"/>
                        <mxPoint x="120" y="30" as="targetPoint"/>
                    </mxGeometry>
                </mxCell>
                <mxCell id="54" value="" style="endArrow=none;html=1;rounded=0;labelBackgroundColor=default;strokeColor=default;fontFamily=Helvetica;fontSize=18;fontColor=default;shape=connector;exitX=1;exitY=0;exitDx=0;exitDy=0;" parent="58" source="52" edge="1">
                    <mxGeometry width="50" height="50" relative="1" as="geometry">
                        <mxPoint x="40" y="35" as="sourcePoint"/>
                        <mxPoint x="120" y="10" as="targetPoint"/>
                    </mxGeometry>
                </mxCell>
                <mxCell id="55" value="" style="endArrow=none;html=1;rounded=0;labelBackgroundColor=default;strokeColor=default;fontFamily=Helvetica;fontSize=18;fontColor=default;shape=connector;" parent="58" edge="1">
                    <mxGeometry width="50" height="50" relative="1" as="geometry">
                        <mxPoint x="120" y="30" as="sourcePoint"/>
                        <mxPoint x="120" y="10" as="targetPoint"/>
                    </mxGeometry>
                </mxCell>
                <mxCell id="56" value="" style="rounded=0;whiteSpace=wrap;html=1;fontFamily=Helvetica;fontSize=18;fontColor=default;fillColor=none;strokeColor=none;" parent="58" vertex="1">
                    <mxGeometry x="115" y="17.5" width="5" height="5" as="geometry"/>
                </mxCell>
                <mxCell id="59" value="1" style="edgeStyle=none;shape=connector;rounded=1;html=1;exitX=1;exitY=0.5;exitDx=0;exitDy=0;entryX=0;entryY=0.5;entryDx=0;entryDy=0;labelBackgroundColor=default;strokeColor=default;fontFamily=Helvetica;fontSize=18;fontColor=default;endArrow=classic;labelBorderColor=default;" parent="1" source="56" target="60" edge="1">
                    <mxGeometry x="-0.0011" relative="1" as="geometry">
                        <mxPoint x="220" y="780" as="targetPoint"/>
                        <Array as="points">
                            <mxPoint x="140" y="620"/>
                            <mxPoint x="190" y="670"/>
                        </Array>
                        <mxPoint as="offset"/>
                    </mxGeometry>
                </mxCell>
                <mxCell id="76" value="Stagebox" style="swimlane;whiteSpace=wrap;html=1;rounded=1;fontFamily=Helvetica;fontSize=18;fontColor=default;fillColor=none;" parent="1" vertex="1">
                    <mxGeometry x="240" y="620" width="180" height="200" as="geometry"/>
                </mxCell>
                <mxCell id="60" value="In 1" style="ellipse;whiteSpace=wrap;html=1;aspect=fixed;rounded=1;fontFamily=Helvetica;fontSize=18;fontColor=default;fillColor=none;" parent="76" vertex="1">
                    <mxGeometry x="10" y="30" width="40" height="40" as="geometry"/>
                </mxCell>
                <mxCell id="61" value="In 2" style="ellipse;whiteSpace=wrap;html=1;aspect=fixed;rounded=1;fontFamily=Helvetica;fontSize=18;fontColor=default;fillColor=none;" parent="76" vertex="1">
                    <mxGeometry x="50" y="30" width="40" height="40" as="geometry"/>
                </mxCell>
                <mxCell id="62" value="In 3" style="ellipse;whiteSpace=wrap;html=1;aspect=fixed;rounded=1;fontFamily=Helvetica;fontSize=18;fontColor=default;fillColor=none;" parent="76" vertex="1">
                    <mxGeometry x="90" y="30" width="40" height="40" as="geometry"/>
                </mxCell>
                <mxCell id="63" value="In 4" style="ellipse;whiteSpace=wrap;html=1;aspect=fixed;rounded=1;fontFamily=Helvetica;fontSize=18;fontColor=default;fillColor=none;" parent="76" vertex="1">
                    <mxGeometry x="130" y="30" width="40" height="40" as="geometry"/>
                </mxCell>
                <mxCell id="64" value="O 1" style="ellipse;whiteSpace=wrap;html=1;aspect=fixed;rounded=1;fontFamily=Helvetica;fontSize=18;fontColor=default;fillColor=none;" parent="76" vertex="1">
                    <mxGeometry x="10" y="70" width="40" height="40" as="geometry"/>
                </mxCell>
                <mxCell id="65" value="O 2" style="ellipse;whiteSpace=wrap;html=1;aspect=fixed;rounded=1;fontFamily=Helvetica;fontSize=18;fontColor=default;fillColor=none;" parent="76" vertex="1">
                    <mxGeometry x="50" y="70" width="40" height="40" as="geometry"/>
                </mxCell>
                <mxCell id="66" value="O 3" style="ellipse;whiteSpace=wrap;html=1;aspect=fixed;rounded=1;fontFamily=Helvetica;fontSize=18;fontColor=default;fillColor=none;" parent="76" vertex="1">
                    <mxGeometry x="90" y="70" width="40" height="40" as="geometry"/>
                </mxCell>
                <mxCell id="67" value="O 4" style="ellipse;whiteSpace=wrap;html=1;aspect=fixed;rounded=1;fontFamily=Helvetica;fontSize=18;fontColor=default;fillColor=none;" parent="76" vertex="1">
                    <mxGeometry x="130" y="70" width="40" height="40" as="geometry"/>
                </mxCell>
                <mxCell id="50" value="" style="group" parent="76" vertex="1" connectable="0">
                    <mxGeometry x="60" y="130" width="110" height="60" as="geometry"/>
                </mxCell>
                <mxCell id="48" value="" style="rounded=1;whiteSpace=wrap;html=1;fontFamily=Helvetica;fontSize=11;fontColor=default;fillColor=none;fontStyle=0" parent="50" vertex="1">
                    <mxGeometry width="110" height="60" as="geometry"/>
                </mxCell>
                <mxCell id="47" value="S" style="ellipse;whiteSpace=wrap;html=1;aspect=fixed;rounded=1;fontFamily=Helvetica;fontSize=11;fontColor=default;fillColor=none;" parent="50" vertex="1">
                    <mxGeometry x="60" y="10" width="40" height="40" as="geometry"/>
                </mxCell>
                <mxCell id="46" value="P" style="ellipse;whiteSpace=wrap;html=1;aspect=fixed;rounded=1;fontFamily=Helvetica;fontSize=11;fontColor=default;fillColor=none;" parent="50" vertex="1">
                    <mxGeometry x="10" y="10" width="40" height="40" as="geometry"/>
                </mxCell>
                <mxCell id="81" value="Mixing console" style="swimlane;whiteSpace=wrap;html=1;rounded=1;fontFamily=Helvetica;fontSize=18;fontColor=default;fillColor=none;" parent="1" vertex="1">
                    <mxGeometry x="573" y="610" width="250" height="270" as="geometry"/>
                </mxCell>
                <mxCell id="115" value="" style="group" parent="81" vertex="1" connectable="0">
                    <mxGeometry x="7.5" y="110" width="225" height="150" as="geometry"/>
                </mxCell>
                <mxCell id="91" value="" style="group" parent="115" vertex="1" connectable="0">
                    <mxGeometry x="120" y="30" width="15" height="120" as="geometry"/>
                </mxCell>
                <mxCell id="82" value="" style="endArrow=none;html=1;rounded=0;labelBackgroundColor=default;strokeColor=default;fontFamily=Helvetica;fontSize=18;fontColor=default;shape=connector;" parent="91" edge="1">
                    <mxGeometry width="50" height="50" relative="1" as="geometry">
                        <mxPoint x="7.5" y="120" as="sourcePoint"/>
                        <mxPoint x="7.5" as="targetPoint"/>
                    </mxGeometry>
                </mxCell>
                <mxCell id="83" value="" style="rounded=1;whiteSpace=wrap;html=1;fontFamily=Helvetica;fontSize=18;rotation=-90;" parent="91" vertex="1">
                    <mxGeometry x="-7.5" y="95" width="30" height="15" as="geometry"/>
                </mxCell>
                <mxCell id="92" value="" style="group" parent="115" vertex="1" connectable="0">
                    <mxGeometry x="210" y="30" width="15" height="120" as="geometry"/>
                </mxCell>
                <mxCell id="89" value="" style="endArrow=none;html=1;rounded=0;labelBackgroundColor=default;strokeColor=default;fontFamily=Helvetica;fontSize=18;fontColor=default;shape=connector;" parent="92" edge="1">
                    <mxGeometry width="50" height="50" relative="1" as="geometry">
                        <mxPoint x="7.5" y="120" as="sourcePoint"/>
                        <mxPoint x="7.5" as="targetPoint"/>
                    </mxGeometry>
                </mxCell>
                <mxCell id="90" value="" style="rounded=1;whiteSpace=wrap;html=1;fontFamily=Helvetica;fontSize=18;rotation=-90;" parent="92" vertex="1">
                    <mxGeometry x="-7.5" y="95" width="30" height="15" as="geometry"/>
                </mxCell>
                <mxCell id="93" value="" style="group" parent="115" vertex="1" connectable="0">
                    <mxGeometry x="180" y="30" width="15" height="120" as="geometry"/>
                </mxCell>
                <mxCell id="87" value="" style="endArrow=none;html=1;rounded=0;labelBackgroundColor=default;strokeColor=default;fontFamily=Helvetica;fontSize=18;fontColor=default;shape=connector;" parent="93" edge="1">
                    <mxGeometry width="50" height="50" relative="1" as="geometry">
                        <mxPoint x="7.5" y="120" as="sourcePoint"/>
                        <mxPoint x="7.5" as="targetPoint"/>
                    </mxGeometry>
                </mxCell>
                <mxCell id="88" value="" style="rounded=1;whiteSpace=wrap;html=1;fontFamily=Helvetica;fontSize=18;rotation=-90;" parent="93" vertex="1">
                    <mxGeometry x="-7.5" y="95" width="30" height="15" as="geometry"/>
                </mxCell>
                <mxCell id="94" value="" style="group" parent="115" vertex="1" connectable="0">
                    <mxGeometry x="150" y="30" width="15" height="120" as="geometry"/>
                </mxCell>
                <mxCell id="85" value="" style="endArrow=none;html=1;rounded=0;labelBackgroundColor=default;strokeColor=default;fontFamily=Helvetica;fontSize=18;fontColor=default;shape=connector;" parent="94" edge="1">
                    <mxGeometry width="50" height="50" relative="1" as="geometry">
                        <mxPoint x="7.5" y="120" as="sourcePoint"/>
                        <mxPoint x="7.5" as="targetPoint"/>
                    </mxGeometry>
                </mxCell>
                <mxCell id="86" value="" style="rounded=1;whiteSpace=wrap;html=1;fontFamily=Helvetica;fontSize=18;rotation=-90;" parent="94" vertex="1">
                    <mxGeometry x="-7.5" y="95" width="30" height="15" as="geometry"/>
                </mxCell>
                <mxCell id="95" value="" style="group" parent="115" vertex="1" connectable="0">
                    <mxGeometry x="2.5" y="30" width="15" height="120" as="geometry"/>
                </mxCell>
                <mxCell id="96" value="" style="endArrow=none;html=1;rounded=0;labelBackgroundColor=default;strokeColor=default;fontFamily=Helvetica;fontSize=18;fontColor=default;shape=connector;" parent="95" edge="1">
                    <mxGeometry width="50" height="50" relative="1" as="geometry">
                        <mxPoint x="7.5" y="120" as="sourcePoint"/>
                        <mxPoint x="7.5" as="targetPoint"/>
                    </mxGeometry>
                </mxCell>
                <mxCell id="97" value="" style="rounded=1;whiteSpace=wrap;html=1;fontFamily=Helvetica;fontSize=18;rotation=-90;" parent="95" vertex="1">
                    <mxGeometry x="-7.5" y="95" width="30" height="15" as="geometry"/>
                </mxCell>
                <mxCell id="98" value="" style="group" parent="115" vertex="1" connectable="0">
                    <mxGeometry x="92.5" y="30" width="15" height="120" as="geometry"/>
                </mxCell>
                <mxCell id="99" value="" style="endArrow=none;html=1;rounded=0;labelBackgroundColor=default;strokeColor=default;fontFamily=Helvetica;fontSize=18;fontColor=default;shape=connector;" parent="98" edge="1">
                    <mxGeometry width="50" height="50" relative="1" as="geometry">
                        <mxPoint x="7.5" y="120" as="sourcePoint"/>
                        <mxPoint x="7.5" as="targetPoint"/>
                    </mxGeometry>
                </mxCell>
                <mxCell id="100" value="" style="rounded=1;whiteSpace=wrap;html=1;fontFamily=Helvetica;fontSize=18;rotation=-90;" parent="98" vertex="1">
                    <mxGeometry x="-7.5" y="95" width="30" height="15" as="geometry"/>
                </mxCell>
                <mxCell id="101" value="" style="group" parent="115" vertex="1" connectable="0">
                    <mxGeometry x="62.5" y="30" width="15" height="120" as="geometry"/>
                </mxCell>
                <mxCell id="102" value="" style="endArrow=none;html=1;rounded=0;labelBackgroundColor=default;strokeColor=default;fontFamily=Helvetica;fontSize=18;fontColor=default;shape=connector;" parent="101" edge="1">
                    <mxGeometry width="50" height="50" relative="1" as="geometry">
                        <mxPoint x="7.5" y="120" as="sourcePoint"/>
                        <mxPoint x="7.5" as="targetPoint"/>
                    </mxGeometry>
                </mxCell>
                <mxCell id="103" value="" style="rounded=1;whiteSpace=wrap;html=1;fontFamily=Helvetica;fontSize=18;rotation=-90;" parent="101" vertex="1">
                    <mxGeometry x="-7.5" y="95" width="30" height="15" as="geometry"/>
                </mxCell>
                <mxCell id="104" value="" style="group" parent="115" vertex="1" connectable="0">
                    <mxGeometry x="32.5" y="30" width="15" height="120" as="geometry"/>
                </mxCell>
                <mxCell id="105" value="" style="endArrow=none;html=1;rounded=0;labelBackgroundColor=default;strokeColor=default;fontFamily=Helvetica;fontSize=18;fontColor=default;shape=connector;" parent="104" edge="1">
                    <mxGeometry width="50" height="50" relative="1" as="geometry">
                        <mxPoint x="7.5" y="120" as="sourcePoint"/>
                        <mxPoint x="7.5" as="targetPoint"/>
                    </mxGeometry>
                </mxCell>
                <mxCell id="106" value="" style="rounded=1;whiteSpace=wrap;html=1;fontFamily=Helvetica;fontSize=18;rotation=-90;" parent="104" vertex="1">
                    <mxGeometry x="-7.5" y="95" width="30" height="15" as="geometry"/>
                </mxCell>
                <mxCell id="107" value="" style="ellipse;whiteSpace=wrap;html=1;aspect=fixed;rounded=1;fontFamily=Helvetica;fontSize=18;" parent="115" vertex="1">
                    <mxGeometry width="20" height="20" as="geometry"/>
                </mxCell>
                <mxCell id="109" value="" style="ellipse;whiteSpace=wrap;html=1;aspect=fixed;rounded=1;fontFamily=Helvetica;fontSize=18;" parent="115" vertex="1">
                    <mxGeometry x="57.5" width="20" height="20" as="geometry"/>
                </mxCell>
                <mxCell id="110" value="" style="ellipse;whiteSpace=wrap;html=1;aspect=fixed;rounded=1;fontFamily=Helvetica;fontSize=18;" parent="115" vertex="1">
                    <mxGeometry x="87.5" width="20" height="20" as="geometry"/>
                </mxCell>
                <mxCell id="108" value="" style="ellipse;whiteSpace=wrap;html=1;aspect=fixed;rounded=1;fontFamily=Helvetica;fontSize=18;" parent="115" vertex="1">
                    <mxGeometry x="30" width="20" height="20" as="geometry"/>
                </mxCell>
                <mxCell id="111" value="" style="ellipse;whiteSpace=wrap;html=1;aspect=fixed;rounded=1;fontFamily=Helvetica;fontSize=18;" parent="115" vertex="1">
                    <mxGeometry x="117.5" width="20" height="20" as="geometry"/>
                </mxCell>
                <mxCell id="112" value="" style="ellipse;whiteSpace=wrap;html=1;aspect=fixed;rounded=1;fontFamily=Helvetica;fontSize=18;" parent="115" vertex="1">
                    <mxGeometry x="175" width="20" height="20" as="geometry"/>
                </mxCell>
                <mxCell id="113" value="" style="ellipse;whiteSpace=wrap;html=1;aspect=fixed;rounded=1;fontFamily=Helvetica;fontSize=18;" parent="115" vertex="1">
                    <mxGeometry x="205" width="20" height="20" as="geometry"/>
                </mxCell>
                <mxCell id="114" value="" style="ellipse;whiteSpace=wrap;html=1;aspect=fixed;rounded=1;fontFamily=Helvetica;fontSize=18;" parent="115" vertex="1">
                    <mxGeometry x="147.5" width="20" height="20" as="geometry"/>
                </mxCell>
                <mxCell id="116" value="" style="group" parent="81" vertex="1" connectable="0">
                    <mxGeometry x="10" y="30" width="110" height="60" as="geometry"/>
                </mxCell>
                <mxCell id="117" value="" style="rounded=1;whiteSpace=wrap;html=1;fontFamily=Helvetica;fontSize=11;fontColor=default;fillColor=none;fontStyle=0" parent="116" vertex="1">
                    <mxGeometry width="110" height="60" as="geometry"/>
                </mxCell>
                <mxCell id="118" value="S" style="ellipse;whiteSpace=wrap;html=1;aspect=fixed;rounded=1;fontFamily=Helvetica;fontSize=11;fontColor=default;fillColor=none;" parent="116" vertex="1">
                    <mxGeometry x="60" y="10" width="40" height="40" as="geometry"/>
                </mxCell>
                <mxCell id="119" value="P" style="ellipse;whiteSpace=wrap;html=1;aspect=fixed;rounded=1;fontFamily=Helvetica;fontSize=11;fontColor=default;fillColor=none;" parent="116" vertex="1">
                    <mxGeometry x="10" y="10" width="40" height="40" as="geometry"/>
                </mxCell>
                <mxCell id="129" value="" style="group;aspect=fixed;" parent="1" vertex="1" connectable="0">
                    <mxGeometry x="70" y="730" width="40" height="60" as="geometry"/>
                </mxCell>
                <mxCell id="125" value="" style="rounded=0;whiteSpace=wrap;html=1;fontFamily=Helvetica;fontSize=18;fontColor=default;fillColor=none;" parent="129" vertex="1">
                    <mxGeometry x="20" y="20" width="20" height="20" as="geometry"/>
                </mxCell>
                <mxCell id="126" value="" style="endArrow=none;html=1;rounded=0;labelBackgroundColor=default;strokeColor=default;fontFamily=Helvetica;fontSize=18;fontColor=default;shape=connector;" parent="129" edge="1">
                    <mxGeometry width="50" height="50" relative="1" as="geometry">
                        <mxPoint y="60" as="sourcePoint"/>
                        <mxPoint x="20" y="40" as="targetPoint"/>
                    </mxGeometry>
                </mxCell>
                <mxCell id="127" value="" style="endArrow=none;html=1;rounded=0;labelBackgroundColor=default;strokeColor=default;fontFamily=Helvetica;fontSize=18;fontColor=default;shape=connector;entryX=0;entryY=0;entryDx=0;entryDy=0;" parent="129" target="125" edge="1">
                    <mxGeometry width="50" height="50" relative="1" as="geometry">
                        <mxPoint as="sourcePoint"/>
                        <mxPoint x="25.00000000000003" y="45" as="targetPoint"/>
                    </mxGeometry>
                </mxCell>
                <mxCell id="128" value="" style="endArrow=none;html=1;rounded=0;labelBackgroundColor=default;strokeColor=default;fontFamily=Helvetica;fontSize=18;fontColor=default;shape=connector;" parent="129" edge="1">
                    <mxGeometry width="50" height="50" relative="1" as="geometry">
                        <mxPoint y="60" as="sourcePoint"/>
                        <mxPoint as="targetPoint"/>
                    </mxGeometry>
                </mxCell>
                <mxCell id="130" value="2" style="edgeStyle=none;shape=connector;rounded=1;exitX=0;exitY=0.5;exitDx=0;exitDy=0;entryX=1;entryY=0.5;entryDx=0;entryDy=0;labelBackgroundColor=default;strokeColor=default;fontFamily=Helvetica;fontSize=18;fontColor=default;startArrow=none;startFill=0;endArrow=classic;labelBorderColor=default;html=1;" parent="1" source="64" target="125" edge="1">
                    <mxGeometry relative="1" as="geometry">
                        <Array as="points">
                            <mxPoint x="190" y="710"/>
                            <mxPoint x="140" y="760"/>
                        </Array>
                    </mxGeometry>
                </mxCell>
                <mxCell id="131" value="3" style="edgeStyle=none;shape=connector;rounded=1;html=1;exitX=0.5;exitY=0;exitDx=0;exitDy=0;entryX=0;entryY=0.5;entryDx=0;entryDy=0;labelBackgroundColor=default;labelBorderColor=default;strokeColor=default;fontFamily=Helvetica;fontSize=18;fontColor=default;startArrow=oval;startFill=1;endArrow=oval;endFill=1;dashed=1;" parent="1" source="46" target="119" edge="1">
                    <mxGeometry x="0.1898" relative="1" as="geometry">
                        <Array as="points">
                            <mxPoint x="330" y="740"/>
                            <mxPoint x="480" y="740"/>
                            <mxPoint x="480" y="670"/>
                        </Array>
                        <mxPoint as="offset"/>
                    </mxGeometry>
                </mxCell>
                <mxCell id="132" value="4" style="edgeStyle=none;shape=connector;rounded=1;html=1;exitX=1;exitY=0.5;exitDx=0;exitDy=0;entryX=0.5;entryY=1;entryDx=0;entryDy=0;labelBackgroundColor=default;labelBorderColor=default;strokeColor=default;fontFamily=Helvetica;fontSize=18;fontColor=default;startArrow=oval;startFill=1;endArrow=oval;endFill=1;dashed=1;" parent="1" source="47" target="118" edge="1">
                    <mxGeometry x="-0.2005" relative="1" as="geometry">
                        <Array as="points">
                            <mxPoint x="500" y="780"/>
                            <mxPoint x="500" y="710"/>
                            <mxPoint x="660" y="710"/>
                        </Array>
                        <mxPoint as="offset"/>
                    </mxGeometry>
                </mxCell>
                <mxCell id="135" value="Legend" style="swimlane;whiteSpace=wrap;html=1;" vertex="1" parent="1">
                    <mxGeometry x="100" y="800" width="100" height="80" as="geometry"/>
                </mxCell>
                <mxCell id="133" value="digital" style="endArrow=none;html=1;dashed=1;" edge="1" parent="135">
                    <mxGeometry width="50" height="50" relative="1" as="geometry">
                        <mxPoint x="6" y="35" as="sourcePoint"/>
                        <mxPoint x="86" y="35" as="targetPoint"/>
                    </mxGeometry>
                </mxCell>
                <mxCell id="134" value="analog" style="endArrow=none;html=1;" edge="1" parent="135">
                    <mxGeometry width="50" height="50" relative="1" as="geometry">
                        <mxPoint x="6" y="65" as="sourcePoint"/>
                        <mxPoint x="86" y="65" as="targetPoint"/>
                    </mxGeometry>
                </mxCell>
            </root>
        </mxGraphModel>
    </diagram>
</mxfile>